# xmcd
# Copyright (C) 1995-1998 Ti Kan
#
# Track frame offsets:
#       150
#       17071
#       37908
#       60655
#       83855
#       109069
#       130204
#       156805
#       176943
#       193630
#       212022
#       231064
#       248457
#
# Disc length: 3603 seconds
#
# Revision: 0
# Processed by: cddbd v1.5.2PL0 Copyright (c) Steve Scherf et al.
# Submitted via: CD-Import v1.0
#
DISCID=a50e110d
DTITLE=Solartones - Sunshine Me
DYEAR=06
DGENRE=
TTITLE0=Sunshine Me
TTITLE1=Hey Mama
TTITLE2=Get It Out
TTITLE3=Time Will Take Care Of Us
TTITLE4=Remember
TTITLE5=Silent
TTITLE6=Standardized Man
TTITLE7=By My Side
TTITLE8=Happy Life
TTITLE9=Anyway
TTITLE10=A Way Out
TTITLE11=Blackberry Tasty
TTITLE12=This Music
EXTD=
EXTT0=
EXTT1=
EXTT2=
EXTT3=
EXTT4=
EXTT5=
EXTT6=
EXTT7=
EXTT8=
EXTT9=
EXTT10=
EXTT11=
EXTT12=
PLAYORDER=
